<?xml version="1.0" encoding="UTF-8"?><svg id="_레이어_1" xmlns="http://www.w3.org/2000/svg" xmlns:xlink="http://www.w3.org/1999/xlink" viewBox="0 0 311.8 311.8"><defs><style>.star_event-1{fill:#fff;}.star_event-2{filter:url(#outer-glow-51);}.star_event-3{filter:url(#outer-glow-50);}.star_event-4{filter:url(#outer-glow-17);}.star_event-5{filter:url(#outer-glow-48);}.star_event-6{filter:url(#outer-glow-49);}</style><filter id="outer-glow-17" filterUnits="userSpaceOnUse"><feOffset dx="0" dy="0"/><feGaussianBlur result="blur" stdDeviation="2.5"/><feFlood flood-color="#000b8c" flood-opacity="1"/><feComposite in2="blur" operator="in"/><feComposite in="SourceGraphic"/></filter><filter id="outer-glow-48" filterUnits="userSpaceOnUse"><feOffset dx="0" dy="0"/><feGaussianBlur result="blur-2" stdDeviation="2.8"/><feFlood flood-color="#0a25e5" flood-opacity="1"/><feComposite in2="blur-2" operator="in"/><feComposite in="SourceGraphic"/></filter><filter id="outer-glow-49" filterUnits="userSpaceOnUse"><feOffset dx="0" dy="0"/><feGaussianBlur result="blur-3" stdDeviation="2.8"/><feFlood flood-color="#000b8c" flood-opacity="1"/><feComposite in2="blur-3" operator="in"/><feComposite in="SourceGraphic"/></filter><filter id="outer-glow-50" filterUnits="userSpaceOnUse"><feOffset dx="0" dy="0"/><feGaussianBlur result="blur-4" stdDeviation="2.8"/><feFlood flood-color="#0a25e5" flood-opacity="1"/><feComposite in2="blur-4" operator="in"/><feComposite in="SourceGraphic"/></filter><filter id="outer-glow-51" filterUnits="userSpaceOnUse"><feOffset dx="0" dy="0"/><feGaussianBlur result="blur-5" stdDeviation="2.8"/><feFlood flood-color="#000b8c" flood-opacity="1"/><feComposite in2="blur-5" operator="in"/><feComposite in="SourceGraphic"/></filter></defs><g class="star_event-4"><path class="star_event-1" d="M194,144c8.3,27.2-13.4,54.4-41.9,51.2-35.2-4.1-49-47.9-21.6-70.9,22.1-18.2,55.4-7.6,63.5,19.7h0Zm-.1,0c-6-20.5-28.9-32.1-49.1-25.8-33.1,10.2-38,55.4-7.3,72,30.5,16,66.2-13,56.4-46.1h0Z"/></g><g><g class="star_event-5"><path class="star_event-1" d="M194,144c8.3,27.2-13.4,54.4-41.9,51.2-35.2-4.1-49-47.9-21.6-70.9,22.1-18.2,55.4-7.6,63.5,19.7h0Zm-.1,0c-6-20.5-28.9-32.1-49.1-25.8-33.1,10.2-38,55.4-7.3,72,30.5,16,66.2-13,56.4-46.1h0Z"/></g><g class="star_event-6"><path class="star_event-1" d="M194,144c8.3,27.2-13.4,54.4-41.9,51.2-35.2-4.1-49-47.9-21.6-70.9,22.1-18.2,55.4-7.6,63.5,19.7h0Zm-.1,0c-6-20.5-28.9-32.1-49.1-25.8-33.1,10.2-38,55.4-7.3,72,30.5,16,66.2-13,56.4-46.1h0Z"/></g></g><g><g class="star_event-3"><path class="star_event-1" d="M194,144c8.3,27.2-13.4,54.4-41.9,51.2-35.2-4.1-49-47.9-21.6-70.9,22.1-18.2,55.4-7.6,63.5,19.7h0Zm-.1,0c-6-20.5-28.9-32.1-49.1-25.8-33.1,10.2-38,55.4-7.3,72,30.5,16,66.2-13,56.4-46.1h0Z"/></g><g class="star_event-2"><path class="star_event-1" d="M194,144c8.3,27.2-13.4,54.4-41.9,51.2-35.2-4.1-49-47.9-21.6-70.9,22.1-18.2,55.4-7.6,63.5,19.7h0Zm-.1,0c-6-20.5-28.9-32.1-49.1-25.8-33.1,10.2-38,55.4-7.3,72,30.5,16,66.2-13,56.4-46.1h0Z"/></g></g></svg>