<?xml version="1.0" encoding="UTF-8"?><svg id="_레이어_1" xmlns="http://www.w3.org/2000/svg" viewBox="0 0 283.46 283.46"><defs><style>.cloud_svg_1,.cloud_svg_2,.cloud_svg_3,.cloud_svg_4,.cloud_svg_5,.cloud_svg_6,.cloud_svg_7,.cloud_svg_8,.cloud_svg_9,.cloud_svg_10,.cloud_svg_11,.cloud_svg_12{stroke:#fff;}.cloud_svg_1,.cloud_svg_2,.cloud_svg_3,.cloud_svg_5,.cloud_svg_6,.cloud_svg_7,.cloud_svg_8,.cloud_svg_9,.cls-13,.cls-14,.cloud_svg_11,.cloud_svg_12,.cls-15{stroke-linecap:round;}.cloud_svg_1,.cloud_svg_4,.cls-16,.cloud_svg_10,.cls-17{stroke-miterlimit:10;}.cloud_svg_1,.cloud_svg_4,.cloud_svg_10{stroke-width:.36px;}.cloud_svg_1,.cloud_svg_5,.cloud_svg_7,.cls-13,.cls-14,.cloud_svg_10,.cls-18,.cloud_svg_11,.cloud_svg_12{fill:none;}.cls-19,.cls-15{fill:#fff;}.cloud_svg_2{stroke-width:.58px;}.cloud_svg_2,.cloud_svg_3,.cloud_svg_4,.cloud_svg_6,.cloud_svg_8,.cloud_svg_9,.cls-16,.cls-20,.cls-17{fill:#0b0b0c;}.cloud_svg_2,.cloud_svg_3,.cloud_svg_5,.cloud_svg_6,.cloud_svg_7,.cloud_svg_8,.cloud_svg_9,.cls-13,.cls-14,.cloud_svg_11,.cloud_svg_12,.cls-15{stroke-linejoin:round;}.cloud_svg_3{stroke-width:.23px;}.cloud_svg_5{stroke-width:1.08px;}.cloud_svg_6{stroke-width:.39px;}.cloud_svg_7{stroke-width:.41px;}.cloud_svg_8,.cls-13,.cls-16,.cls-15{stroke-width:.54px;}.cloud_svg_9{stroke-width:.41px;}.cls-13,.cls-14,.cls-16,.cls-17,.cls-15{stroke:#0b0b0c;}.cls-14{stroke-width:.72px;}.cloud_svg_11,.cls-17{stroke-width:.34px;}.cloud_svg_12{stroke-width:.67px;}</style></defs><polyline class="cloud_svg_11" points="84.22 113.07 74.82 122.83 87.11 124.17"/><polygon class="cls-15" points="89.58 125.6 87.12 125.46 84.63 119.38 86.77 118.62 89.58 125.6"/><rect class="cls-15" x="83.29" y="40.14" width="13.17" height="7.88" rx="3.4" ry="3.4" transform="translate(-9.96 36.75) rotate(-21.92)"/><polyline class="cloud_svg_11" points="82.12 107.12 64.22 128.22 94.91 130.27"/><polygon class="cloud_svg_7" points="64.22 113.1 79.57 104.77 80.1 104.92 80.76 105.64 64.61 113.67 64.22 113.1"/><polyline class="cloud_svg_11" points="82.12 107.12 82.8 107.87 64.79 127.99"/><polygon class="cloud_svg_4" points="83.8 100.92 71.03 97.33 64.22 100.56 80.1 104.92 83.8 100.92"/><polygon class="cls-19" points="85.12 110.39 80.1 104.92 83.8 100.92 85.12 110.39"/><polygon class="cloud_svg_4" points="102.7 88.42 87.44 93.83 83.8 100.92 84.22 113.07 90.35 128.32 99.21 138.01 118.91 131.96 123.25 126.85 117.52 98.88 102.7 88.42"/><polygon class="cls-15" points="102.7 88.42 96.15 90.74 94.91 96.52 96.35 109.14 101.8 125.11 109.56 134.62 119.16 134.64 124.58 125.11 119.09 99.86 102.7 88.42"/><ellipse class="cls-18" cx="131.67" cy="108.48" rx="7.17" ry="23.01" transform="translate(-28 48.4) rotate(-18.86)"/><line class="cloud_svg_1" x1="75.2" y1="18.8" x2="94.91" y2="10.3"/><line class="cloud_svg_10" x1="96.35" y1="109.14" x2="84.31" y2="113.1"/><line class="cloud_svg_10" x1="101.8" y1="125.11" x2="90.5" y2="128.51"/><line class="cloud_svg_10" x1="94.91" y1="96.52" x2="83.61" y2="100.92"/><polyline class="cls-14" points="94.91 96.52 106.95 100.57 96.41 117.89"/><polyline class="cloud_svg_11" points="83.8 100.92 83.47 86.74 87.44 94.23"/><line class="cloud_svg_11" x1="96.15" y1="90.74" x2="100.93" y2="63.23"/><polygon class="cls-15" points="112.09 80.12 110.2 87.97 82.83 10.26 90.22 7.73 112.09 80.12"/><line class="cloud_svg_5" x1="112.97" y1="138.49" x2="34.27" y2="279.54"/><polyline class="cloud_svg_12" points="112.19 170.73 117.09 159.31 122.5 146.7 106.64 169 117.09 159.31"/><line class="cloud_svg_12" x1="108.55" y1="134.35" x2="114.41" y2="158.07"/><line class="cloud_svg_12" x1="112.97" y1="138.49" x2="106.32" y2="169.24"/><rect class="cls-15" x="61.1" y="15.38" width="19.3" height="14.49" rx="7.14" ry="7.14" transform="translate(-3.33 28.05) rotate(-21.92)"/><polyline class="cloud_svg_7" points="64.22 100.56 64.22 113.1 69.14 101.91"/><polyline class="cloud_svg_7" points="64.22 128.22 96.15 134.67 74.31 139.75"/><polygon class="cls-15" points="95.2 125.6 90.97 126.85 86.01 113.99 90.14 112.5 95.2 125.6"/><ellipse class="cls-20" cx="123.28" cy="105.64" rx="14.88" ry="27.06" transform="translate(-27.54 45.54) rotate(-18.86)"/><ellipse class="cloud_svg_4" cx="129.45" cy="104.77" rx="14.88" ry="43.14" transform="translate(-26.92 47.48) rotate(-18.86)"/><ellipse class="cls-15" cx="133.18" cy="102.26" rx="14.88" ry="54.29" transform="translate(-25.91 48.55) rotate(-18.86)"/><ellipse class="cls-18" cx="155.15" cy="96.52" rx="3.14" ry="10.96" transform="translate(-19.69 43.42) rotate(-14.99)"/><polyline class="cls-13" points="115.09 93.85 152.81 85.86 125.44 86.74 152.12 97.33"/><polyline class="cls-13" points="115.19 94.23 155.79 103.47 134.16 139.75"/><ellipse class="cloud_svg_4" cx="154.42" cy="95.92" rx="3.14" ry="9.2" transform="translate(-19.56 43.21) rotate(-14.99)"/><ellipse class="cls-15" cx="156.2" cy="95.92" rx="3.14" ry="10.85" transform="translate(-19.49 43.67) rotate(-14.99)"/><rect class="cloud_svg_4" x="155.44" y="93.09" width="9.21" height="4.25" rx="2.13" ry="2.13" transform="translate(-19.18 44.64) rotate(-14.99)"/><circle class="cloud_svg_9" cx="67.46" cy="23.93" r="6.75"/><ellipse class="cls-15" cx="108.55" cy="200.63" rx="6.69" ry="3.63"/><rect class="cloud_svg_8" x="105" y="168.36" width="7.45" height="32.78" rx="2.44" ry="2.44"/><rect class="cloud_svg_4" x="63.64" y="125.6" width="2.3" height="5.58" rx="1.15" ry="1.15" transform="translate(-38.03 27.84) rotate(-18.86)"/><polygon class="cls-15" points="259.76 258.38 257.99 260.26 113.42 138.97 115.19 137.09 259.76 258.38"/><polygon class="cls-16" points="265.29 263.08 263.52 264.96 123.28 147.36 128.34 141.41 265.29 263.08"/><path class="cls-15" d="M269.48,268.4h0c-.48,.51-1.27,.55-1.8,.1l-139.29-116.79,5.06-5.95,135.95,120.77c.55,.49,.58,1.34,.08,1.87Z"/><rect class="cls-17" x="109.52" y="128.26" width="7.78" height="11.1" rx="2.53" ry="2.53" transform="translate(-61.78 125.14) rotate(-46.88)"/><rect class="cls-15" x="80.73" y="4.53" width="11.86" height="11.16" rx="3.76" ry="3.76" transform="translate(1.39 28.56) rotate(-18.86)"/><rect class="cls-15" x="98" y="33.69" width="15.82" height="7.88" rx="3.74" ry="3.74" transform="translate(-6.39 42.27) rotate(-21.92)"/><circle class="cloud_svg_3" cx="109.62" cy="36.14" r="3.84"/><polygon class="cloud_svg_2" points="94.85 13.7 91.41 15.63 92.84 21.74 96.77 31.77 99.47 30.02 99.97 19.69 97.56 14.38 94.85 13.7"/><rect class="cloud_svg_6" x="87.38" y="3.9" width="5.13" height="10.27" rx="2.44" ry="2.44" transform="translate(1.91 29.57) rotate(-18.86)"/></svg>