<?xml version="1.0" encoding="UTF-8"?><svg id="_레이어_1" xmlns="http://www.w3.org/2000/svg" xmlns:xlink="http://www.w3.org/1999/xlink" viewBox="0 0 311.8 311.8"><defs><style>.star_comet2-1{fill:#fff;}.star_comet2-2{filter:url(#outer-glow-1);}.star_comet2-3{filter:url(#outer-glow-5);}.star_comet2-4{filter:url(#outer-glow-7);}.star_comet2-5{filter:url(#outer-glow-6);}</style><filter id="outer-glow-1" filterUnits="userSpaceOnUse"><feOffset dx="0" dy="0"/><feGaussianBlur result="blur" stdDeviation="2.8"/><feFlood flood-color="#dd8a03" flood-opacity="1"/><feComposite in2="blur" operator="in"/><feComposite in="SourceGraphic"/></filter><filter id="outer-glow-5" filterUnits="userSpaceOnUse"><feOffset dx="0" dy="0"/><feGaussianBlur result="blur-2" stdDeviation="8.5"/><feFlood flood-color="#dd8a03" flood-opacity="1"/><feComposite in2="blur-2" operator="in"/><feComposite in="SourceGraphic"/></filter><filter id="outer-glow-6" filterUnits="userSpaceOnUse"><feOffset dx="0" dy="0"/><feGaussianBlur result="blur-3" stdDeviation="8.5"/><feFlood flood-color="#dd8a03" flood-opacity="1"/><feComposite in2="blur-3" operator="in"/><feComposite in="SourceGraphic"/></filter><filter id="outer-glow-7" filterUnits="userSpaceOnUse"><feOffset dx="0" dy="0"/><feGaussianBlur result="blur-4" stdDeviation="8.5"/><feFlood flood-color="#dd8a03" flood-opacity="1"/><feComposite in2="blur-4" operator="in"/><feComposite in="SourceGraphic"/></filter></defs><g class="star_comet2-2"><path class="star_comet2-1" d="M220.4,98.1c-45.3,41.8-101.6,93.1-147.7,136.5,60.3-58.6,129.1-130.2,187.3-188.4l-.2-.2c-61,60.7-127.9,125.1-189,187.9,38.8-40.8,78.1-85.2,115.5-125.4,0,0-.1-.1-.1-.1-38.4,41.2-80.4,84.9-119.2,127.5l-25.7,27.6c-.4,.5-.7,1-.7,1.6s0,0,0,0c0,.4,.3,.7,.7,.6s.4,0,.6-.2,.6-.3,.9-.6l31.1-29.9c49-44.4,99.3-92.9,146.7-136.9,0,0-.1-.1-.1-.1Z"/></g><g class="star_comet2-3"><path class="star_comet2-1" d="M220.4,98.1c-45.3,41.8-101.6,93.1-147.7,136.5,60.3-58.6,129.1-130.2,187.3-188.4l-.2-.2c-61,60.7-127.9,125.1-189,187.9,38.8-40.8,78.1-85.2,115.5-125.4,0,0-.1-.1-.1-.1-38.4,41.2-80.4,84.9-119.2,127.5l-25.7,27.6c-.4,.5-.7,1-.7,1.6s0,0,0,0c0,.4,.3,.7,.7,.6s.4,0,.6-.2,.6-.3,.9-.6l31.1-29.9c49-44.4,99.3-92.9,146.7-136.9,0,0-.1-.1-.1-.1Z"/></g><g class="star_comet2-5"><path class="star_comet2-1" d="M220.4,98.1c-45.3,41.8-101.6,93.1-147.7,136.5,60.3-58.6,129.1-130.2,187.3-188.4l-.2-.2c-61,60.7-127.9,125.1-189,187.9,38.8-40.8,78.1-85.2,115.5-125.4,0,0-.1-.1-.1-.1-38.4,41.2-80.4,84.9-119.2,127.5l-25.7,27.6c-.4,.5-.7,1-.7,1.6s0,0,0,0c0,.4,.3,.7,.7,.6s.4,0,.6-.2,.6-.3,.9-.6l31.1-29.9c49-44.4,99.3-92.9,146.7-136.9,0,0-.1-.1-.1-.1Z"/></g><g class="star_comet2-4"><path class="star_comet2-1" d="M220.4,98.1c-45.3,41.8-101.6,93.1-147.7,136.5,60.3-58.6,129.1-130.2,187.3-188.4l-.2-.2c-61,60.7-127.9,125.1-189,187.9,38.8-40.8,78.1-85.2,115.5-125.4,0,0-.1-.1-.1-.1-38.4,41.2-80.4,84.9-119.2,127.5l-25.7,27.6c-.4,.5-.7,1-.7,1.6s0,0,0,0c0,.4,.3,.7,.7,.6s.4,0,.6-.2,.6-.3,.9-.6l31.1-29.9c49-44.4,99.3-92.9,146.7-136.9,0,0-.1-.1-.1-.1Z"/></g></svg>