<?xml version="1.0" encoding="UTF-8"?><svg id="_레이어_1" xmlns="http://www.w3.org/2000/svg" xmlns:xlink="http://www.w3.org/1999/xlink" viewBox="0 0 311.8 311.8"><defs><style>.star_comet1-1{fill:#fff;}.star_comet1-2{filter:url(#outer-glow-3);}.star_comet1-3{filter:url(#outer-glow-4);}.star_comet1-4{filter:url(#outer-glow-2);}</style><filter id="outer-glow-2" filterUnits="userSpaceOnUse"><feOffset dx="0" dy="0"/><feGaussianBlur result="blur" stdDeviation="14"/><feFlood flood-color="#fff" flood-opacity="1"/><feComposite in2="blur" operator="in"/><feComposite in="SourceGraphic"/></filter><filter id="outer-glow-3" filterUnits="userSpaceOnUse"><feOffset dx="0" dy="0"/><feGaussianBlur result="blur-2" stdDeviation="14"/><feFlood flood-color="#fff" flood-opacity="1"/><feComposite in2="blur-2" operator="in"/><feComposite in="SourceGraphic"/></filter><filter id="outer-glow-4" filterUnits="userSpaceOnUse"><feOffset dx="0" dy="0"/><feGaussianBlur result="blur-3" stdDeviation="14"/><feFlood flood-color="#fff" flood-opacity="1"/><feComposite in2="blur-3" operator="in"/><feComposite in="SourceGraphic"/></filter></defs><g class="star_comet1-4"><path class="star_comet1-1" d="M85.8,98.1c45.3,41.8,101.6,93.1,147.7,136.5C173.2,176,104.5,104.5,46.2,46.2l.2-.2c61,60.7,127.9,125.1,189,187.9-38.8-40.8-78.1-85.2-115.5-125.4,0,0,.1-.1,.1-.1,38.4,41.2,80.4,84.9,119.2,127.5l25.7,27.6c.4,.5,.7,1,.7,1.6s0,0,0,0c0,.4-.3,.7-.7,.6s-.4,0-.6-.2-.6-.3-.9-.6l-31.1-29.9c-49-44.4-99.3-92.9-146.7-136.9,0,0,.1-.1,.1-.1Z"/></g><g class="star_comet1-2"><path class="star_comet1-1" d="M85.8,98.1c45.3,41.8,101.6,93.1,147.7,136.5C173.2,176,104.5,104.5,46.2,46.2l.2-.2c61,60.7,127.9,125.1,189,187.9-38.8-40.8-78.1-85.2-115.5-125.4,0,0,.1-.1,.1-.1,38.4,41.2,80.4,84.9,119.2,127.5l25.7,27.6c.4,.5,.7,1,.7,1.6s0,0,0,0c0,.4-.3,.7-.7,.6s-.4,0-.6-.2-.6-.3-.9-.6l-31.1-29.9c-49-44.4-99.3-92.9-146.7-136.9,0,0,.1-.1,.1-.1Z"/></g><g class="star_comet1-3"><path class="star_comet1-1" d="M85.8,98.1c45.3,41.8,101.6,93.1,147.7,136.5C173.2,176,104.5,104.5,46.2,46.2l.2-.2c61,60.7,127.9,125.1,189,187.9-38.8-40.8-78.1-85.2-115.5-125.4,0,0,.1-.1,.1-.1,38.4,41.2,80.4,84.9,119.2,127.5l25.7,27.6c.4,.5,.7,1,.7,1.6s0,0,0,0c0,.4-.3,.7-.7,.6s-.4,0-.6-.2-.6-.3-.9-.6l-31.1-29.9c-49-44.4-99.3-92.9-146.7-136.9,0,0,.1-.1,.1-.1Z"/></g></svg>