<?xml version="1.0" encoding="UTF-8"?><svg id="_레이어_1" xmlns="http://www.w3.org/2000/svg" xmlns:xlink="http://www.w3.org/1999/xlink" viewBox="0 0 311.8 311.8"><defs><style>.star_black-1{fill:#fff;}.star_black-2{filter:url(#outer-glow-15);}.star_black-3{filter:url(#outer-glow-13);}.star_black-4{filter:url(#outer-glow-9);}.star_black-5{filter:url(#outer-glow-10);}.star_black-6{filter:url(#outer-glow-14);}.star_black-7{filter:url(#outer-glow-8);}.star_black-8{filter:url(#outer-glow-46);}.star_black-9{filter:url(#outer-glow-12);}.star_black-10{filter:url(#outer-glow-16);}.star_black-11{filter:url(#outer-glow-11);}</style><filter id="outer-glow-8" filterUnits="userSpaceOnUse"><feOffset dx="0" dy="0"/><feGaussianBlur result="blur" stdDeviation="2.8"/><feFlood flood-color="#0a25e5" flood-opacity="1"/><feComposite in2="blur" operator="in"/><feComposite in="SourceGraphic"/></filter><filter id="outer-glow-9" filterUnits="userSpaceOnUse"><feOffset dx="0" dy="0"/><feGaussianBlur result="blur-2" stdDeviation="5.7"/><feFlood flood-color="#dd8a03" flood-opacity="1"/><feComposite in2="blur-2" operator="in"/><feComposite in="SourceGraphic"/></filter><filter id="outer-glow-10" filterUnits="userSpaceOnUse"><feOffset dx="0" dy="0"/><feGaussianBlur result="blur-3" stdDeviation="5.7"/><feFlood flood-color="#dd8a03" flood-opacity="1"/><feComposite in2="blur-3" operator="in"/><feComposite in="SourceGraphic"/></filter><filter id="outer-glow-11" filterUnits="userSpaceOnUse"><feOffset dx="0" dy="0"/><feGaussianBlur result="blur-4" stdDeviation="5.7"/><feFlood flood-color="#dd8a03" flood-opacity="1"/><feComposite in2="blur-4" operator="in"/><feComposite in="SourceGraphic"/></filter><filter id="outer-glow-12" filterUnits="userSpaceOnUse"><feOffset dx="0" dy="0"/><feGaussianBlur result="blur-5" stdDeviation="5.7"/><feFlood flood-color="#dd8a03" flood-opacity="1"/><feComposite in2="blur-5" operator="in"/><feComposite in="SourceGraphic"/></filter><filter id="outer-glow-13" filterUnits="userSpaceOnUse"><feOffset dx="0" dy="0"/><feGaussianBlur result="blur-6" stdDeviation="5.7"/><feFlood flood-color="#dd8a03" flood-opacity="1"/><feComposite in2="blur-6" operator="in"/><feComposite in="SourceGraphic"/></filter><filter id="outer-glow-14" filterUnits="userSpaceOnUse"><feOffset dx="0" dy="0"/><feGaussianBlur result="blur-7" stdDeviation="5.1"/><feFlood flood-color="#dd8a03" flood-opacity=".8"/><feComposite in2="blur-7" operator="in"/><feComposite in="SourceGraphic"/></filter><filter id="outer-glow-15" filterUnits="userSpaceOnUse"><feOffset dx="0" dy="0"/><feGaussianBlur result="blur-8" stdDeviation="5.1"/><feFlood flood-color="#dd8a03" flood-opacity=".8"/><feComposite in2="blur-8" operator="in"/><feComposite in="SourceGraphic"/></filter><filter id="outer-glow-16" filterUnits="userSpaceOnUse"><feOffset dx="0" dy="0"/><feGaussianBlur result="blur-9" stdDeviation="5.1"/><feFlood flood-color="#dd8a03" flood-opacity=".8"/><feComposite in2="blur-9" operator="in"/><feComposite in="SourceGraphic"/></filter><filter id="outer-glow-46" filterUnits="userSpaceOnUse"><feOffset dx="0" dy="0"/><feGaussianBlur result="blur-10" stdDeviation="2.8"/><feFlood flood-color="#000b8c" flood-opacity="1"/><feComposite in2="blur-10" operator="in"/><feComposite in="SourceGraphic"/></filter></defs><g class="star_black-7"><path class="star_black-1" d="M194,144c8.3,27.2-13.4,54.4-41.9,51.2-35.2-4.1-49-47.9-21.6-70.9,22.1-18.2,55.4-7.6,63.5,19.7h0Zm-.1,0c-6-20.5-28.9-32.1-49.1-25.8-33.1,10.2-38,55.4-7.3,72,30.5,16,66.2-13,56.4-46.1h0Z"/></g><g class="star_black-4"><path class="star_black-1" d="M199,142.9c9.5,31-15.3,61.8-47.7,58.5-40.4-4.5-54.9-54.5-24.2-80.6,24.9-20.9,62.7-8.9,71.9,22.1h0Zm-.1,0c-11.6-37.7-63.7-42.6-82.5-8.1-11.8,21.4-3,49.1,18.5,60.3,34.8,18.3,75.1-14.3,64-52.2h0Z"/><path class="star_black-1" d="M201.7,142c10.1,32.8-16.3,65.6-50.7,62.2-19.1-1.7-36.1-15.9-41.3-34.3-5.5-18.2,.9-39.2,15.6-51.3,26.5-22.2,66.6-9.4,76.4,23.4h0Zm-.1,0c-7.3-24.8-34.9-39-59.4-31.5-18.1,5.1-32.2,21.8-33.7,40.6-3.2,33.4,29,59.6,61.1,49.9,24.7-7.3,39.7-34.2,32.1-59h0Z"/><path class="star_black-1" d="M204.4,141.2c10.7,34.8-17.3,69.5-53.7,65.8-20.2-1.8-38.3-16.8-43.8-36.3-5.9-19.3,.9-41.5,16.5-54.3,28.1-23.5,70.6-10,80.9,24.8h0Zm-.1,0c-5.6-19.2-23.6-33.6-43.5-35.2-35.5-3.6-63.9,30.1-53.1,64.5,10.4,33.9,52.5,46.6,79.9,24.2,15.6-12.4,22.7-34.3,16.7-53.4h0Z"/><path class="star_black-1" d="M207.2,140.4c11.3,36.7-18.3,73.3-56.7,69.4-21.3-1.9-40.4-17.7-46.2-38.3-6.2-20.4,1-43.8,17.4-57.3,29.6-24.8,74.5-10.5,85.5,26.2h0Zm-.1,0c-5.9-20.3-25-35.5-45.9-37.2-37.6-3.7-67.4,31.7-56.1,68.1,11.1,35.9,55.3,49.3,84.4,25.5,16.5-13.1,23.9-36.2,17.6-56.4h0Z"/><path class="star_black-1" d="M209.9,139.6c11.8,38.6-19.3,77.2-59.7,73.1-22.5-2-42.5-18.7-48.7-40.3-6.6-21.5,1-46.1,18.3-60.3,31.2-26.1,78.4-11.1,90,27.5h0Zm-.1,0c-6.3-21.4-26.3-37.4-48.4-39.2-39.6-3.9-71,33.5-59.1,71.7,11.7,37.8,58.3,51.9,88.9,26.9,17.4-13.8,25.2-38.2,18.6-59.4h0Z"/><path class="star_black-1" d="M212.6,138.8c12.5,40.5-20.3,81-62.7,76.7-23.6-2.1-44.6-19.6-51.1-42.4-7-22.5,1.1-48.4,19.3-63.3,32.7-27.3,82.4-11.6,94.5,28.9h0Zm-.1,0c-6.5-22.5-27.6-39.3-50.8-41.2-41.6-4.1-74.6,35.2-62.1,75.4,12.2,39.7,61.3,54.6,93.5,28.3,18.2-14.5,26.5-40.1,19.5-62.4h0Z"/><path class="star_black-1" d="M215.3,137.9c13,42.5-21.3,84.9-65.7,80.4-24.7-2.2-46.8-20.5-53.5-44.4-7.3-23.6,1.1-50.7,20.2-66.3,34.3-28.6,86.3-12.2,99,30.3h0Zm-.1,0c-6.9-23.5-28.9-41.2-53.2-43.3-43.6-4.3-78.2,36.9-65.1,79,12.8,41.7,64.2,57.2,98,29.7,19.1-15.2,27.7-42.1,20.4-65.5h0Z"/><path class="star_black-1" d="M218,137.1c13.6,44.4-22.3,88.7-68.6,84-25.8-2.3-48.9-21.4-56-46.4-7.6-24.7,1.2-53,21.1-69.4,35.8-29.9,90.3-12.7,103.5,31.7h0Zm-.1,0c-7.2-24.6-30.2-43.1-55.7-45.3-45.7-4.4-81.7,38.5-68.1,82.7,13.4,43.6,67.2,59.9,102.5,31,20-15.9,29-44,21.3-68.5h0Z"/></g><g class="star_black-5"><path class="star_black-1" d="M199,142.9c9.5,31-15.3,61.8-47.7,58.5-40.4-4.5-54.9-54.5-24.2-80.6,24.9-20.9,62.7-8.9,71.9,22.1h0Zm-.1,0c-11.6-37.7-63.7-42.6-82.5-8.1-11.8,21.4-3,49.1,18.5,60.3,34.8,18.3,75.1-14.3,64-52.2h0Z"/><path class="star_black-1" d="M201.7,142c10.1,32.8-16.3,65.6-50.7,62.2-19.1-1.7-36.1-15.9-41.3-34.3-5.5-18.2,.9-39.2,15.6-51.3,26.5-22.2,66.6-9.4,76.4,23.4h0Zm-.1,0c-7.3-24.8-34.9-39-59.4-31.5-18.1,5.1-32.2,21.8-33.7,40.6-3.2,33.4,29,59.6,61.1,49.9,24.7-7.3,39.7-34.2,32.1-59h0Z"/><path class="star_black-1" d="M204.4,141.2c10.7,34.8-17.3,69.5-53.7,65.8-20.2-1.8-38.3-16.8-43.8-36.3-5.9-19.3,.9-41.5,16.5-54.3,28.1-23.5,70.6-10,80.9,24.8h0Zm-.1,0c-5.6-19.2-23.6-33.6-43.5-35.2-35.5-3.6-63.9,30.1-53.1,64.5,10.4,33.9,52.5,46.6,79.9,24.2,15.6-12.4,22.7-34.3,16.7-53.4h0Z"/><path class="star_black-1" d="M207.2,140.4c11.3,36.7-18.3,73.3-56.7,69.4-21.3-1.9-40.4-17.7-46.2-38.3-6.2-20.4,1-43.8,17.4-57.3,29.6-24.8,74.5-10.5,85.5,26.2h0Zm-.1,0c-5.9-20.3-25-35.5-45.9-37.2-37.6-3.7-67.4,31.7-56.1,68.1,11.1,35.9,55.3,49.3,84.4,25.5,16.5-13.1,23.9-36.2,17.6-56.4h0Z"/><path class="star_black-1" d="M209.9,139.6c11.8,38.6-19.3,77.2-59.7,73.1-22.5-2-42.5-18.7-48.7-40.3-6.6-21.5,1-46.1,18.3-60.3,31.2-26.1,78.4-11.1,90,27.5h0Zm-.1,0c-6.3-21.4-26.3-37.4-48.4-39.2-39.6-3.9-71,33.5-59.1,71.7,11.7,37.8,58.3,51.9,88.9,26.9,17.4-13.8,25.2-38.2,18.6-59.4h0Z"/><path class="star_black-1" d="M212.6,138.8c12.5,40.5-20.3,81-62.7,76.7-23.6-2.1-44.6-19.6-51.1-42.4-7-22.5,1.1-48.4,19.3-63.3,32.7-27.3,82.4-11.6,94.5,28.9h0Zm-.1,0c-6.5-22.5-27.6-39.3-50.8-41.2-41.6-4.1-74.6,35.2-62.1,75.4,12.2,39.7,61.3,54.6,93.5,28.3,18.2-14.5,26.5-40.1,19.5-62.4h0Z"/><path class="star_black-1" d="M215.3,137.9c13,42.5-21.3,84.9-65.7,80.4-24.7-2.2-46.8-20.5-53.5-44.4-7.3-23.6,1.1-50.7,20.2-66.3,34.3-28.6,86.3-12.2,99,30.3h0Zm-.1,0c-6.9-23.5-28.9-41.2-53.2-43.3-43.6-4.3-78.2,36.9-65.1,79,12.8,41.7,64.2,57.2,98,29.7,19.1-15.2,27.7-42.1,20.4-65.5h0Z"/><path class="star_black-1" d="M218,137.1c13.6,44.4-22.3,88.7-68.6,84-25.8-2.3-48.9-21.4-56-46.4-7.6-24.7,1.2-53,21.1-69.4,35.8-29.9,90.3-12.7,103.5,31.7h0Zm-.1,0c-7.2-24.6-30.2-43.1-55.7-45.3-45.7-4.4-81.7,38.5-68.1,82.7,13.4,43.6,67.2,59.9,102.5,31,20-15.9,29-44,21.3-68.5h0Z"/></g><g class="star_black-11"><path class="star_black-1" d="M199,142.9c9.5,31-15.3,61.8-47.7,58.5-40.4-4.5-54.9-54.5-24.2-80.6,24.9-20.9,62.7-8.9,71.9,22.1h0Zm-.1,0c-11.6-37.7-63.7-42.6-82.5-8.1-11.8,21.4-3,49.1,18.5,60.3,34.8,18.3,75.1-14.3,64-52.2h0Z"/><path class="star_black-1" d="M201.7,142c10.1,32.8-16.3,65.6-50.7,62.2-19.1-1.7-36.1-15.9-41.3-34.3-5.5-18.2,.9-39.2,15.6-51.3,26.5-22.2,66.6-9.4,76.4,23.4h0Zm-.1,0c-7.3-24.8-34.9-39-59.4-31.5-18.1,5.1-32.2,21.8-33.7,40.6-3.2,33.4,29,59.6,61.1,49.9,24.7-7.3,39.7-34.2,32.1-59h0Z"/><path class="star_black-1" d="M204.4,141.2c10.7,34.8-17.3,69.5-53.7,65.8-20.2-1.8-38.3-16.8-43.8-36.3-5.9-19.3,.9-41.5,16.5-54.3,28.1-23.5,70.6-10,80.9,24.8h0Zm-.1,0c-5.6-19.2-23.6-33.6-43.5-35.2-35.5-3.6-63.9,30.1-53.1,64.5,10.4,33.9,52.5,46.6,79.9,24.2,15.6-12.4,22.7-34.3,16.7-53.4h0Z"/><path class="star_black-1" d="M207.2,140.4c11.3,36.7-18.3,73.3-56.7,69.4-21.3-1.9-40.4-17.7-46.2-38.3-6.2-20.4,1-43.8,17.4-57.3,29.6-24.8,74.5-10.5,85.5,26.2h0Zm-.1,0c-5.9-20.3-25-35.5-45.9-37.2-37.6-3.7-67.4,31.7-56.1,68.1,11.1,35.9,55.3,49.3,84.4,25.5,16.5-13.1,23.9-36.2,17.6-56.4h0Z"/><path class="star_black-1" d="M209.9,139.6c11.8,38.6-19.3,77.2-59.7,73.1-22.5-2-42.5-18.7-48.7-40.3-6.6-21.5,1-46.1,18.3-60.3,31.2-26.1,78.4-11.1,90,27.5h0Zm-.1,0c-6.3-21.4-26.3-37.4-48.4-39.2-39.6-3.9-71,33.5-59.1,71.7,11.7,37.8,58.3,51.9,88.9,26.9,17.4-13.8,25.2-38.2,18.6-59.4h0Z"/><path class="star_black-1" d="M212.6,138.8c12.5,40.5-20.3,81-62.7,76.7-23.6-2.1-44.6-19.6-51.1-42.4-7-22.5,1.1-48.4,19.3-63.3,32.7-27.3,82.4-11.6,94.5,28.9h0Zm-.1,0c-6.5-22.5-27.6-39.3-50.8-41.2-41.6-4.1-74.6,35.2-62.1,75.4,12.2,39.7,61.3,54.6,93.5,28.3,18.2-14.5,26.5-40.1,19.5-62.4h0Z"/><path class="star_black-1" d="M215.3,137.9c13,42.5-21.3,84.9-65.7,80.4-24.7-2.2-46.8-20.5-53.5-44.4-7.3-23.6,1.1-50.7,20.2-66.3,34.3-28.6,86.3-12.2,99,30.3h0Zm-.1,0c-6.9-23.5-28.9-41.2-53.2-43.3-43.6-4.3-78.2,36.9-65.1,79,12.8,41.7,64.2,57.2,98,29.7,19.1-15.2,27.7-42.1,20.4-65.5h0Z"/><path class="star_black-1" d="M218,137.1c13.6,44.4-22.3,88.7-68.6,84-25.8-2.3-48.9-21.4-56-46.4-7.6-24.7,1.2-53,21.1-69.4,35.8-29.9,90.3-12.7,103.5,31.7h0Zm-.1,0c-7.2-24.6-30.2-43.1-55.7-45.3-45.7-4.4-81.7,38.5-68.1,82.7,13.4,43.6,67.2,59.9,102.5,31,20-15.9,29-44,21.3-68.5h0Z"/></g><g class="star_black-9"><path class="star_black-1" d="M199,142.9c9.5,31-15.3,61.8-47.7,58.5-40.4-4.5-54.9-54.5-24.2-80.6,24.9-20.9,62.7-8.9,71.9,22.1h0Zm-.1,0c-11.6-37.7-63.7-42.6-82.5-8.1-11.8,21.4-3,49.1,18.5,60.3,34.8,18.3,75.1-14.3,64-52.2h0Z"/><path class="star_black-1" d="M201.7,142c10.1,32.8-16.3,65.6-50.7,62.2-19.1-1.7-36.1-15.9-41.3-34.3-5.5-18.2,.9-39.2,15.6-51.3,26.5-22.2,66.6-9.4,76.4,23.4h0Zm-.1,0c-7.3-24.8-34.9-39-59.4-31.5-18.1,5.1-32.2,21.8-33.7,40.6-3.2,33.4,29,59.6,61.1,49.9,24.7-7.3,39.7-34.2,32.1-59h0Z"/><path class="star_black-1" d="M204.4,141.2c10.7,34.8-17.3,69.5-53.7,65.8-20.2-1.8-38.3-16.8-43.8-36.3-5.9-19.3,.9-41.5,16.5-54.3,28.1-23.5,70.6-10,80.9,24.8h0Zm-.1,0c-5.6-19.2-23.6-33.6-43.5-35.2-35.5-3.6-63.9,30.1-53.1,64.5,10.4,33.9,52.5,46.6,79.9,24.2,15.6-12.4,22.7-34.3,16.7-53.4h0Z"/><path class="star_black-1" d="M207.2,140.4c11.3,36.7-18.3,73.3-56.7,69.4-21.3-1.9-40.4-17.7-46.2-38.3-6.2-20.4,1-43.8,17.4-57.3,29.6-24.8,74.5-10.5,85.5,26.2h0Zm-.1,0c-5.9-20.3-25-35.5-45.9-37.2-37.6-3.7-67.4,31.7-56.1,68.1,11.1,35.9,55.3,49.3,84.4,25.5,16.5-13.1,23.9-36.2,17.6-56.4h0Z"/><path class="star_black-1" d="M209.9,139.6c11.8,38.6-19.3,77.2-59.7,73.1-22.5-2-42.5-18.7-48.7-40.3-6.6-21.5,1-46.1,18.3-60.3,31.2-26.1,78.4-11.1,90,27.5h0Zm-.1,0c-6.3-21.4-26.3-37.4-48.4-39.2-39.6-3.9-71,33.5-59.1,71.7,11.7,37.8,58.3,51.9,88.9,26.9,17.4-13.8,25.2-38.2,18.6-59.4h0Z"/><path class="star_black-1" d="M212.6,138.8c12.5,40.5-20.3,81-62.7,76.7-23.6-2.1-44.6-19.6-51.1-42.4-7-22.5,1.1-48.4,19.3-63.3,32.7-27.3,82.4-11.6,94.5,28.9h0Zm-.1,0c-6.5-22.5-27.6-39.3-50.8-41.2-41.6-4.1-74.6,35.2-62.1,75.4,12.2,39.7,61.3,54.6,93.5,28.3,18.2-14.5,26.5-40.1,19.5-62.4h0Z"/><path class="star_black-1" d="M215.3,137.9c13,42.5-21.3,84.9-65.7,80.4-24.7-2.2-46.8-20.5-53.5-44.4-7.3-23.6,1.1-50.7,20.2-66.3,34.3-28.6,86.3-12.2,99,30.3h0Zm-.1,0c-6.9-23.5-28.9-41.2-53.2-43.3-43.6-4.3-78.2,36.9-65.1,79,12.8,41.7,64.2,57.2,98,29.7,19.1-15.2,27.7-42.1,20.4-65.5h0Z"/><path class="star_black-1" d="M218,137.1c13.6,44.4-22.3,88.7-68.6,84-25.8-2.3-48.9-21.4-56-46.4-7.6-24.7,1.2-53,21.1-69.4,35.8-29.9,90.3-12.7,103.5,31.7h0Zm-.1,0c-7.2-24.6-30.2-43.1-55.7-45.3-45.7-4.4-81.7,38.5-68.1,82.7,13.4,43.6,67.2,59.9,102.5,31,20-15.9,29-44,21.3-68.5h0Z"/></g><g class="star_black-3"><path class="star_black-1" d="M199,142.9c9.5,31-15.3,61.8-47.7,58.5-40.4-4.5-54.9-54.5-24.2-80.6,24.9-20.9,62.7-8.9,71.9,22.1h0Zm-.1,0c-11.6-37.7-63.7-42.6-82.5-8.1-11.8,21.4-3,49.1,18.5,60.3,34.8,18.3,75.1-14.3,64-52.2h0Z"/><path class="star_black-1" d="M201.7,142c10.1,32.8-16.3,65.6-50.7,62.2-19.1-1.7-36.1-15.9-41.3-34.3-5.5-18.2,.9-39.2,15.6-51.3,26.5-22.2,66.6-9.4,76.4,23.4h0Zm-.1,0c-7.3-24.8-34.9-39-59.4-31.5-18.1,5.1-32.2,21.8-33.7,40.6-3.2,33.4,29,59.6,61.1,49.9,24.7-7.3,39.7-34.2,32.1-59h0Z"/><path class="star_black-1" d="M204.4,141.2c10.7,34.8-17.3,69.5-53.7,65.8-20.2-1.8-38.3-16.8-43.8-36.3-5.9-19.3,.9-41.5,16.5-54.3,28.1-23.5,70.6-10,80.9,24.8h0Zm-.1,0c-5.6-19.2-23.6-33.6-43.5-35.2-35.5-3.6-63.9,30.1-53.1,64.5,10.4,33.9,52.5,46.6,79.9,24.2,15.6-12.4,22.7-34.3,16.7-53.4h0Z"/><path class="star_black-1" d="M207.2,140.4c11.3,36.7-18.3,73.3-56.7,69.4-21.3-1.9-40.4-17.7-46.2-38.3-6.2-20.4,1-43.8,17.4-57.3,29.6-24.8,74.5-10.5,85.5,26.2h0Zm-.1,0c-5.9-20.3-25-35.5-45.9-37.2-37.6-3.7-67.4,31.7-56.1,68.1,11.1,35.9,55.3,49.3,84.4,25.5,16.5-13.1,23.9-36.2,17.6-56.4h0Z"/><path class="star_black-1" d="M209.9,139.6c11.8,38.6-19.3,77.2-59.7,73.1-22.5-2-42.5-18.7-48.7-40.3-6.6-21.5,1-46.1,18.3-60.3,31.2-26.1,78.4-11.1,90,27.5h0Zm-.1,0c-6.3-21.4-26.3-37.4-48.4-39.2-39.6-3.9-71,33.5-59.1,71.7,11.7,37.8,58.3,51.9,88.9,26.9,17.4-13.8,25.2-38.2,18.6-59.4h0Z"/><path class="star_black-1" d="M212.6,138.8c12.5,40.5-20.3,81-62.7,76.7-23.6-2.1-44.6-19.6-51.1-42.4-7-22.5,1.1-48.4,19.3-63.3,32.7-27.3,82.4-11.6,94.5,28.9h0Zm-.1,0c-6.5-22.5-27.6-39.3-50.8-41.2-41.6-4.1-74.6,35.2-62.1,75.4,12.2,39.7,61.3,54.6,93.5,28.3,18.2-14.5,26.5-40.1,19.5-62.4h0Z"/><path class="star_black-1" d="M215.3,137.9c13,42.5-21.3,84.9-65.7,80.4-24.7-2.2-46.8-20.5-53.5-44.4-7.3-23.6,1.1-50.7,20.2-66.3,34.3-28.6,86.3-12.2,99,30.3h0Zm-.1,0c-6.9-23.5-28.9-41.2-53.2-43.3-43.6-4.3-78.2,36.9-65.1,79,12.8,41.7,64.2,57.2,98,29.7,19.1-15.2,27.7-42.1,20.4-65.5h0Z"/><path class="star_black-1" d="M218,137.1c13.6,44.4-22.3,88.7-68.6,84-25.8-2.3-48.9-21.4-56-46.4-7.6-24.7,1.2-53,21.1-69.4,35.8-29.9,90.3-12.7,103.5,31.7h0Zm-.1,0c-7.2-24.6-30.2-43.1-55.7-45.3-45.7-4.4-81.7,38.5-68.1,82.7,13.4,43.6,67.2,59.9,102.5,31,20-15.9,29-44,21.3-68.5h0Z"/></g><g class="star_black-6"><path class="star_black-1" d="M248.8,124.2c-.2-.5-.5-1.6-15.6,2.3-4.8,1.2-10.6,2.9-17.2,4.8,0,.1,.1,.3,.2,.4,6.6-1.9,12.4-3.6,17.2-4.8,14-3.6,15-2.8,15.1-2.6,0,.2-.2,2-25.9,12.3-17.2,6.9-40.3,15.4-65,23.8-24.7,8.5-48.2,16-66,21.1-26.6,7.7-27.9,6.4-28,6.2,0-.2,.3-1.5,13.7-7.2,4.4-1.9,9.8-4.1,15.9-6.5,0-.1,0-.3-.1-.5-6.1,2.4-11.5,4.6-16,6.6-14.5,6.3-14.1,7.4-13.9,7.8,.2,.5,.7,2.1,28.5-5.9,3.3-1,6.9-2,10.6-3.1,16.1-4.9,35.3-11.1,55.4-18,24.7-8.5,47.8-17,65-23.9,26.9-10.8,26.3-12.4,26.1-12.9Z"/><path class="star_black-1" d="M243,125.6c-2.2-.5-11.9,1.8-27,6.1,0,.1,.1,.3,.2,.4,14.9-4.3,24.6-6.6,26.7-6.1,.2,0,.3,.1,.3,.1,0,.2-.1,1.8-21.9,10.6-14.6,5.9-34.8,13.4-56.7,21.1-48,16.7-90.9,29.4-95.7,28.4-.2,0-.3-.1-.3-.1-.2-.7,5.2-3.9,24.6-11.7,0-.1-.1-.3-.2-.4-12.7,5.1-25,10.4-24.9,12.1,0,.2,.1,.4,.6,.5,2.6,.6,16.6-2.9,36.5-9,16.7-5,37.5-11.8,59.4-19.5,39.4-13.7,79.1-29.1,78.9-32.1,0-.2-.1-.4-.6-.5Z"/><path class="star_black-1" d="M237.4,127.1c-3.1,.2-10.5,1.9-21.2,5,0,.1,.1,.3,.2,.4,10.7-3,18.1-4.8,21.1-4.9,1.2,0,1.3,.1,1.3,.1,0,.2-.7,1.8-18.4,9.1-12.2,5-29.5,11.5-48.6,18.3-44.9,15.9-88.6,29.2-97.3,29.7-1.2,0-1.3-.1-1.3-.1-.1-.8,6.3-4.1,20.3-9.8,0-.1-.2-.3-.2-.4-3.4,1.4-6.5,2.7-9.2,3.9-11.6,5.1-11.4,6.1-11.3,6.5,0,.4,.6,.6,1.8,.5,4.2-.2,16.6-3.4,33.2-8.5,17.9-5.4,40.9-13,64.2-21.2,19.2-6.8,36.5-13.3,48.7-18.3,18.9-7.8,18.7-9.1,18.6-9.5,0-.4-.6-.6-1.8-.5Z"/><path class="star_black-1" d="M231.8,128.6c-3.2,.5-8.5,1.8-15.5,3.7,0,.1,.1,.3,.2,.4,7-1.9,12.2-3.2,15.4-3.7,2.8-.4,3.1-.1,3.2-.1,0,1.2-14.8,8.5-56.2,23.3-41.8,15-86.2,28.9-98.9,30.9-2.8,.4-3.1,.1-3.2,.1,0-.6,3.9-3,16.8-8.3-.1-.1-.2-.3-.3-.4-2.5,1-4.7,2-6.7,2.9-10.6,4.7-10.3,5.6-10.2,6,.1,.4,.6,.7,3.7,.2,5.3-.8,16-3.7,29.7-7.9,19.4-5.9,44.8-14.3,69.3-23.1,9.6-3.4,57.3-20.8,56.5-23.9-.1-.4-.6-.7-3.7-.2Z"/><path class="star_black-1" d="M226.2,130.1c-2.6,.6-5.9,1.4-9.9,2.4,0,.1,.1,.3,.2,.4,3.9-1.1,7.2-1.9,9.8-2.4,5.3-1.1,5.9-.7,5.9-.7,0,1.3-14.4,7.9-46.2,19.6-38.8,14.2-83.8,28.6-100.5,32.2-5.3,1.1-5.9,.7-5.9,.7,0-.5,3.4-2.6,14.1-7.2-.1-.1-.2-.2-.3-.4-1.8,.8-3.4,1.5-4.9,2.1-9.7,4.3-9.5,5.1-9.4,5.5,.1,.5,1,.8,6.5-.3,5.7-1.2,14.7-3.7,25.7-7,21.1-6.4,49.3-15.8,74.8-25.2,14.2-5.2,26.1-9.8,34.4-13.4,12.5-5.4,12.3-6.3,12.1-6.8-.1-.5-1-.8-6.5,.3Z"/><path class="star_black-1" d="M220.6,131.6c-1.3,.3-2.7,.7-4.2,1.1,0,.1,.1,.3,.2,.4,1.5-.4,2.9-.8,4.2-1.1,8.7-2.1,9.6-1.7,9.7-1.6,0,.8-7.9,5.2-37.3,16.2-35.7,13.4-81.5,28.4-102,33.4-8.7,2.1-9.6,1.7-9.7,1.6,0-.5,3-2.4,12.4-6.4,0,0,0,0,0-.1,0,0-.2-.2-.2-.3-1.4,.6-2.6,1.1-3.8,1.7-9.1,4.1-8.9,4.9-8.8,5.3,.1,.4,.4,1.2,10.2-1.2,5.5-1.3,12.8-3.4,21.2-5.9,23.1-7,54.7-17.7,80.9-27.5,11.8-4.4,21.5-8.3,28-11.2,9.9-4.4,9.7-5.2,9.6-5.6-.1-.4-.4-1.2-10.2,1.2Z"/><path class="star_black-1" d="M230.1,130.6c-.1-.4-.4-1.4-13.7,2.1,0,.1,0,.3,.1,.4,11.8-3.1,13-2.6,13.1-2.4,0,.2-.8,2.2-29.4,13.2-32.6,12.5-79.1,28.1-103.6,34.7-13.2,3.5-14.4,3-14.5,2.8,0-.1,.4-1.3,11.6-6.1,0,0,0-.1,0-.2,0,0-.1-.1-.2-.2-1.7,.7-3.2,1.4-4.5,2-7.7,3.5-7.5,4.3-7.4,4.6,.1,.4,.5,1.4,15.1-2.5,4.6-1.2,10.1-2.8,16.1-4.6,25.6-7.7,61.1-19.9,87.6-30,9.5-3.7,17.2-6.8,22.3-9.2,7.7-3.5,7.5-4.3,7.4-4.6Z"/><path class="star_black-1" d="M230.5,130.5c-.1-.4-.5-1.4-14.1,2.2,0,.1,.1,.3,.2,.4,12.1-3.2,13.4-2.7,13.5-2.5,0,.3-1.1,2-22.7,10.6-29.6,11.7-76.7,27.8-105.2,35.9-18.7,5.3-20.3,4.6-20.5,4.5,0-.2,.7-1.4,12-6.2,0,0,0-.1,0-.2,0,0-.2-.2-.2-.2-12.7,5.4-12.4,6.4-12.2,6.8,.2,.5,.6,1.7,21-4.1,3.2-.9,6.7-1.9,10.3-3,28.6-8.6,68.7-22.5,94.9-32.9,23.6-9.3,23.1-10.7,23-11.2Z"/><path class="star_black-1" d="M232,130c-.1-.3-.4-1-7.6,.6-2.2,.5-4.9,1.2-8,2,0,.1,.1,.3,.2,.4,13.8-3.7,14.9-3,15-2.9,0,.2-.8,1.7-17,8.3-26.5,10.9-74.4,27.5-106.7,37.1-25.7,7.6-27.4,6.6-27.5,6.5,0-.2,.7-1.5,13.5-6.9,0,0,0,0,0,0-.1-.1-.2-.2-.3-.4-14.1,6-13.8,7-13.6,7.4,.1,.3,.4,1,7.6-.6,4.8-1.1,11.7-3,20.5-5.6,1.3-.4,2.6-.8,3.9-1.2,32.2-9.7,77.4-25.5,102.9-36,17.8-7.3,17.4-8.5,17.3-8.9Z"/><path class="star_black-1" d="M234.5,129.1c-.1-.4-.4-1.2-9.8,1.1-2.4,.6-5.2,1.3-8.4,2.2,0,.1,.1,.3,.2,.4,16.3-4.5,17.5-3.7,17.6-3.6,0,.2-.5,1.4-12.4,6.4-23.4,10-72,27.3-108.3,38.4-33.4,10.2-35.5,9-35.6,8.8,0-.2,.5-1.4,12.4-6.4,1.1-.5,2.3-1,3.5-1.5-.1-.1-.2-.3-.3-.4-1.2,.5-2.3,1-3.4,1.4-13.1,5.6-12.8,6.6-12.6,7,.1,.4,.4,1.2,9.8-1.1,5.6-1.3,13.6-3.6,23.2-6.5,1-.3,2.1-.6,3.2-1,36.3-11.1,84.9-28.4,108.3-38.4,13.1-5.6,12.8-6.6,12.6-7Z"/><path class="star_black-1" d="M237.9,127.9c-.1-.4-.5-1.3-11.9,1.6-2.8,.7-6.1,1.6-9.8,2.6,0,.1,.1,.3,.2,.4,15.6-4.4,20.8-5,21.1-4.5,0,.1-.3,1.1-8.7,4.9-20.3,9.2-69.6,27-109.9,39.6-34.2,10.7-44.1,12.3-44.6,11.5,0-.1,.3-1.1,8.7-4.9,2.9-1.3,6.4-2.8,10.4-4.4,0-.1-.2-.3-.2-.4-4,1.6-7.5,3.1-10.4,4.4-9.4,4.3-9.1,5.1-8.9,5.5,.1,.4,.5,1.3,12.4-1.7,5.7-1.4,13.2-3.5,22-6.2s7-2.1,10.8-3.3c40.3-12.6,89.6-30.4,109.9-39.7,9.4-4.2,9.1-5.1,8.9-5.5Z"/><path class="star_black-1" d="M242.2,126.5c-.2-.4-.5-1.4-13.2,1.8-3.6,.9-8,2.1-12.9,3.5,0,.1,.1,.3,.2,.4,19.1-5.5,25.2-6.2,25.5-5.6,0,0,0,.8-5.8,3.6-17.3,8.4-67.3,26.7-111.4,40.9-42,13.5-54,15.4-54.4,14.5,0,0,0-.8,5.8-3.6,4-1.9,9.9-4.5,17.4-7.5,0-.1-.1-.3-.2-.4-7.4,3-13.4,5.5-17.4,7.5-6.4,3.1-6.2,3.8-6,4.2,.2,.4,.6,1.5,15.4-2.4,5.7-1.5,12.7-3.5,20.8-5.9,5.8-1.7,12.1-3.7,18.9-5.9,44.2-14.2,94.2-32.5,111.5-40.9,6.4-3.1,6.2-3.8,6-4.2Z"/><path class="star_black-1" d="M247.1,124.7c-.7-1.7-16.2,2.3-31.2,6.7,0,.1,.1,.3,.2,.4,23.1-6.8,30.3-7.7,30.6-7,0,0,.2,.5-3.6,2.5-14.2,7.5-64.9,26.4-113,42.1-46.7,15.2-64.4,18.9-65,17.7,0,0-.2-.5,3.6-2.5,4.6-2.4,13-6.1,24.4-10.6,0-.1,0-.3-.1-.4-11.4,4.5-19.8,8.2-24.5,10.6-3.7,2-4,2.7-3.8,3.1,.2,.4,.7,1.6,18.6-3.2,5.6-1.5,12.2-3.4,19.7-5.7,8.2-2.5,17.4-5.4,27.3-8.6,48.1-15.7,98.9-34.6,113.1-42.2,3.7-2,4-2.7,3.8-3.1Z"/><path class="star_black-1" d="M252.7,122.8c-.2-.4-.7-1.5-16.5,2.5-5.6,1.5-12.5,3.4-20.4,5.7,0,.1,0,.3,.1,.4,7.8-2.3,14.7-4.3,20.3-5.7,14.6-3.8,15.8-3,15.9-2.8,0,0,.1,.4-2,1.7-11.1,6.7-62.5,26.2-114.5,43.4-54.2,17.9-75.5,22.5-76.1,21.1,0,0-.1-.4,2-1.7,4.5-2.7,15.5-7.5,31.4-13.7,0-.2,0-.3,0-.5-15.9,6.2-27,11-31.5,13.8-1.8,1.1-2.5,1.8-2.2,2.3,.2,.4,.8,1.8,22.1-4,5.5-1.5,11.7-3.3,18.6-5.4,10.6-3.2,22.8-7.1,36-11.4,52.1-17.2,103.5-36.7,114.6-43.4,1.8-1.1,2.5-1.8,2.2-2.3Z"/><path class="star_black-1" d="M258.7,120.7c-1.1-2.1-24.1,4.3-43,10,0,.1,0,.3,.1,.4,28.2-8.5,41.8-11.4,42.4-10.2,0,0,0,.3-1,1-8,5.9-60.1,25.9-116.1,44.6-24.1,8.1-46.3,15-62.4,19.5-23.3,6.5-25.2,5.5-25.3,5.2,0,0,0-.3,1-1,3.8-2.8,17.7-8.9,38.4-16.9,0-.2,0-.3,0-.5-20.8,8-34.8,14.1-38.6,17-1,.7-1.3,1.2-1.1,1.6,.2,.5,1,1.9,25.9-5,5.2-1.4,11-3.1,17.2-5,13.3-4,28.8-9,45.2-14.4,56-18.7,108.1-38.8,116.2-44.7,1-.7,1.3-1.2,1.1-1.6Z"/><path class="star_black-1" d="M265.1,118.5c-1.4-2.3-29,5.6-49.5,11.9,0,0,0,0,0,.1,0,.1,0,.2,0,.3,32.5-9.9,48.2-13.3,49-12.1,0,0,0,.2-.3,.5-5,5-57.7,25.6-117.6,45.8-66.9,22.6-98.6,30.2-99.7,28.4,0,0,0-.2,.3-.5,2.7-2.7,19.6-10.1,45.5-20,0-.2,0-.3,0-.5-26.1,10-43,17.4-45.8,20.2-.4,.4-.5,.8-.4,1.1,1.2,1.9,20.1-2.9,45.6-10.7,16.5-5,35.7-11.2,54.6-17.6,60-20.3,112.8-40.9,117.8-45.9,.4-.4,.5-.8,.4-1.1Z"/><path class="star_black-1" d="M271.9,116c-1.8-2.1-27.8,5-56.5,13.9,0,.1,.1,.3,.2,.4,32.4-10,54.5-15.6,55.9-14,0,0,0,0,0,.2-1.9,4.2-55.3,25.3-119.2,47-29.5,10.1-57.3,18.9-78.3,24.9-29.9,8.6-33.4,7.8-33.8,7.4,0,0,0,0,0-.2,1.1-2.5,21.5-11.4,52.5-23.1,0-.2,0-.3,0-.5-37.2,14.1-52,21.3-52.9,23.5-.2,.4,0,.6,0,.7,1.6,1.8,21.5-3.3,48.2-11.4,19.4-5.9,42.3-13.3,64.4-20.8,65-22.1,117.5-42.9,119.4-47.3,.2-.4,0-.6,0-.7Z"/><path class="star_black-1" d="M254.7,117.9c-10.7,2.9-24.1,6.8-39.5,11.6,.1,.1,.2,.3,.3,.4,15.3-4.8,28.7-8.7,39.3-11.5,21.6-5.8,23.7-4.9,23.9-4.4,.1,.4-.9,3-34.4,16.4-22.8,9.1-53.5,20.4-86.3,31.7-32.8,11.3-63.9,21.2-87.6,28.1-34.7,10-37.1,8.6-37.2,8.2-.1-.4,1-2.5,21.8-11.2,10.1-4.3,23-9.3,37.9-14.9,0,0,0,0,0,0,0-.1,0-.3,0-.4-15,5.6-27.9,10.7-38.1,15-22.8,9.6-22.2,11.2-22,11.8,.2,.7,1.7,1.2,10.8-.8,6.5-1.4,15.5-3.8,27-7.1,4.4-1.3,9.1-2.7,14-4.2,21.3-6.4,46.9-14.7,73.5-23.9,32.8-11.3,63.5-22.5,86.3-31.7,11.1-4.4,19.7-8.1,25.7-11,8.4-4,9.2-5.3,9-6-.2-.6-.7-2.2-24.4,4.1Z"/></g><g class="star_black-2"><path class="star_black-1" d="M248.8,124.2c-.2-.5-.5-1.6-15.6,2.3-4.8,1.2-10.6,2.9-17.2,4.8,0,.1,.1,.3,.2,.4,6.6-1.9,12.4-3.6,17.2-4.8,14-3.6,15-2.8,15.1-2.6,0,.2-.2,2-25.9,12.3-17.2,6.9-40.3,15.4-65,23.8-24.7,8.5-48.2,16-66,21.1-26.6,7.7-27.9,6.4-28,6.2,0-.2,.3-1.5,13.7-7.2,4.4-1.9,9.8-4.1,15.9-6.5,0-.1,0-.3-.1-.5-6.1,2.4-11.5,4.6-16,6.6-14.5,6.3-14.1,7.4-13.9,7.8,.2,.5,.7,2.1,28.5-5.9,3.3-1,6.9-2,10.6-3.1,16.1-4.9,35.3-11.1,55.4-18,24.7-8.5,47.8-17,65-23.9,26.9-10.8,26.3-12.4,26.1-12.9Z"/><path class="star_black-1" d="M243,125.6c-2.2-.5-11.9,1.8-27,6.1,0,.1,.1,.3,.2,.4,14.9-4.3,24.6-6.6,26.7-6.1,.2,0,.3,.1,.3,.1,0,.2-.1,1.8-21.9,10.6-14.6,5.9-34.8,13.4-56.7,21.1-48,16.7-90.9,29.4-95.7,28.4-.2,0-.3-.1-.3-.1-.2-.7,5.2-3.9,24.6-11.7,0-.1-.1-.3-.2-.4-12.7,5.1-25,10.4-24.9,12.1,0,.2,.1,.4,.6,.5,2.6,.6,16.6-2.9,36.5-9,16.7-5,37.5-11.8,59.4-19.5,39.4-13.7,79.1-29.1,78.9-32.1,0-.2-.1-.4-.6-.5Z"/><path class="star_black-1" d="M237.4,127.1c-3.1,.2-10.5,1.9-21.2,5,0,.1,.1,.3,.2,.4,10.7-3,18.1-4.8,21.1-4.9,1.2,0,1.3,.1,1.3,.1,0,.2-.7,1.8-18.4,9.1-12.2,5-29.5,11.5-48.6,18.3-44.9,15.9-88.6,29.2-97.3,29.7-1.2,0-1.3-.1-1.3-.1-.1-.8,6.3-4.1,20.3-9.8,0-.1-.2-.3-.2-.4-3.4,1.4-6.5,2.7-9.2,3.9-11.6,5.1-11.4,6.1-11.3,6.5,0,.4,.6,.6,1.8,.5,4.2-.2,16.6-3.4,33.2-8.5,17.9-5.4,40.9-13,64.2-21.2,19.2-6.8,36.5-13.3,48.7-18.3,18.9-7.8,18.7-9.1,18.6-9.5,0-.4-.6-.6-1.8-.5Z"/><path class="star_black-1" d="M231.8,128.6c-3.2,.5-8.5,1.8-15.5,3.7,0,.1,.1,.3,.2,.4,7-1.9,12.2-3.2,15.4-3.7,2.8-.4,3.1-.1,3.2-.1,0,1.2-14.8,8.5-56.2,23.3-41.8,15-86.2,28.9-98.9,30.9-2.8,.4-3.1,.1-3.2,.1,0-.6,3.9-3,16.8-8.3-.1-.1-.2-.3-.3-.4-2.5,1-4.7,2-6.7,2.9-10.6,4.7-10.3,5.6-10.2,6,.1,.4,.6,.7,3.7,.2,5.3-.8,16-3.7,29.7-7.9,19.4-5.9,44.8-14.3,69.3-23.1,9.6-3.4,57.3-20.8,56.5-23.9-.1-.4-.6-.7-3.7-.2Z"/><path class="star_black-1" d="M226.2,130.1c-2.6,.6-5.9,1.4-9.9,2.4,0,.1,.1,.3,.2,.4,3.9-1.1,7.2-1.9,9.8-2.4,5.3-1.1,5.9-.7,5.9-.7,0,1.3-14.4,7.9-46.2,19.6-38.8,14.2-83.8,28.6-100.5,32.2-5.3,1.1-5.9,.7-5.9,.7,0-.5,3.4-2.6,14.1-7.2-.1-.1-.2-.2-.3-.4-1.8,.8-3.4,1.5-4.9,2.1-9.7,4.3-9.5,5.1-9.4,5.5,.1,.5,1,.8,6.5-.3,5.7-1.2,14.7-3.7,25.7-7,21.1-6.4,49.3-15.8,74.8-25.2,14.2-5.2,26.1-9.8,34.4-13.4,12.5-5.4,12.3-6.3,12.1-6.8-.1-.5-1-.8-6.5,.3Z"/><path class="star_black-1" d="M220.6,131.6c-1.3,.3-2.7,.7-4.2,1.1,0,.1,.1,.3,.2,.4,1.5-.4,2.9-.8,4.2-1.1,8.7-2.1,9.6-1.7,9.7-1.6,0,.8-7.9,5.2-37.3,16.2-35.7,13.4-81.5,28.4-102,33.4-8.7,2.1-9.6,1.7-9.7,1.6,0-.5,3-2.4,12.4-6.4,0,0,0,0,0-.1,0,0-.2-.2-.2-.3-1.4,.6-2.6,1.1-3.8,1.7-9.1,4.1-8.9,4.9-8.8,5.3,.1,.4,.4,1.2,10.2-1.2,5.5-1.3,12.8-3.4,21.2-5.9,23.1-7,54.7-17.7,80.9-27.5,11.8-4.4,21.5-8.3,28-11.2,9.9-4.4,9.7-5.2,9.6-5.6-.1-.4-.4-1.2-10.2,1.2Z"/><path class="star_black-1" d="M230.1,130.6c-.1-.4-.4-1.4-13.7,2.1,0,.1,0,.3,.1,.4,11.8-3.1,13-2.6,13.1-2.4,0,.2-.8,2.2-29.4,13.2-32.6,12.5-79.1,28.1-103.6,34.7-13.2,3.5-14.4,3-14.5,2.8,0-.1,.4-1.3,11.6-6.1,0,0,0-.1,0-.2,0,0-.1-.1-.2-.2-1.7,.7-3.2,1.4-4.5,2-7.7,3.5-7.5,4.3-7.4,4.6,.1,.4,.5,1.4,15.1-2.5,4.6-1.2,10.1-2.8,16.1-4.6,25.6-7.7,61.1-19.9,87.6-30,9.5-3.7,17.2-6.8,22.3-9.2,7.7-3.5,7.5-4.3,7.4-4.6Z"/><path class="star_black-1" d="M230.5,130.5c-.1-.4-.5-1.4-14.1,2.2,0,.1,.1,.3,.2,.4,12.1-3.2,13.4-2.7,13.5-2.5,0,.3-1.1,2-22.7,10.6-29.6,11.7-76.7,27.8-105.2,35.9-18.7,5.3-20.3,4.6-20.5,4.5,0-.2,.7-1.4,12-6.2,0,0,0-.1,0-.2,0,0-.2-.2-.2-.2-12.7,5.4-12.4,6.4-12.2,6.8,.2,.5,.6,1.7,21-4.1,3.2-.9,6.7-1.9,10.3-3,28.6-8.6,68.7-22.5,94.9-32.9,23.6-9.3,23.1-10.7,23-11.2Z"/><path class="star_black-1" d="M232,130c-.1-.3-.4-1-7.6,.6-2.2,.5-4.9,1.2-8,2,0,.1,.1,.3,.2,.4,13.8-3.7,14.9-3,15-2.9,0,.2-.8,1.7-17,8.3-26.5,10.9-74.4,27.5-106.7,37.1-25.7,7.6-27.4,6.6-27.5,6.5,0-.2,.7-1.5,13.5-6.9,0,0,0,0,0,0-.1-.1-.2-.2-.3-.4-14.1,6-13.8,7-13.6,7.4,.1,.3,.4,1,7.6-.6,4.8-1.1,11.7-3,20.5-5.6,1.3-.4,2.6-.8,3.9-1.2,32.2-9.7,77.4-25.5,102.9-36,17.8-7.3,17.4-8.5,17.3-8.9Z"/><path class="star_black-1" d="M234.5,129.1c-.1-.4-.4-1.2-9.8,1.1-2.4,.6-5.2,1.3-8.4,2.2,0,.1,.1,.3,.2,.4,16.3-4.5,17.5-3.7,17.6-3.6,0,.2-.5,1.4-12.4,6.4-23.4,10-72,27.3-108.3,38.4-33.4,10.2-35.5,9-35.6,8.8,0-.2,.5-1.4,12.4-6.4,1.1-.5,2.3-1,3.5-1.5-.1-.1-.2-.3-.3-.4-1.2,.5-2.3,1-3.4,1.4-13.1,5.6-12.8,6.6-12.6,7,.1,.4,.4,1.2,9.8-1.1,5.6-1.3,13.6-3.6,23.2-6.5,1-.3,2.1-.6,3.2-1,36.3-11.1,84.9-28.4,108.3-38.4,13.1-5.6,12.8-6.6,12.6-7Z"/><path class="star_black-1" d="M237.9,127.9c-.1-.4-.5-1.3-11.9,1.6-2.8,.7-6.1,1.6-9.8,2.6,0,.1,.1,.3,.2,.4,15.6-4.4,20.8-5,21.1-4.5,0,.1-.3,1.1-8.7,4.9-20.3,9.2-69.6,27-109.9,39.6-34.2,10.7-44.1,12.3-44.6,11.5,0-.1,.3-1.1,8.7-4.9,2.9-1.3,6.4-2.8,10.4-4.4,0-.1-.2-.3-.2-.4-4,1.6-7.5,3.1-10.4,4.4-9.4,4.3-9.1,5.1-8.9,5.5,.1,.4,.5,1.3,12.4-1.7,5.7-1.4,13.2-3.5,22-6.2s7-2.1,10.8-3.3c40.3-12.6,89.6-30.4,109.9-39.7,9.4-4.2,9.1-5.1,8.9-5.5Z"/><path class="star_black-1" d="M242.2,126.5c-.2-.4-.5-1.4-13.2,1.8-3.6,.9-8,2.1-12.9,3.5,0,.1,.1,.3,.2,.4,19.1-5.5,25.2-6.2,25.5-5.6,0,0,0,.8-5.8,3.6-17.3,8.4-67.3,26.7-111.4,40.9-42,13.5-54,15.4-54.4,14.5,0,0,0-.8,5.8-3.6,4-1.9,9.9-4.5,17.4-7.5,0-.1-.1-.3-.2-.4-7.4,3-13.4,5.5-17.4,7.5-6.4,3.1-6.2,3.8-6,4.2,.2,.4,.6,1.5,15.4-2.4,5.7-1.5,12.7-3.5,20.8-5.9,5.8-1.7,12.1-3.7,18.9-5.9,44.2-14.2,94.2-32.5,111.5-40.9,6.4-3.1,6.2-3.8,6-4.2Z"/><path class="star_black-1" d="M247.1,124.7c-.7-1.7-16.2,2.3-31.2,6.7,0,.1,.1,.3,.2,.4,23.1-6.8,30.3-7.7,30.6-7,0,0,.2,.5-3.6,2.5-14.2,7.5-64.9,26.4-113,42.1-46.7,15.2-64.4,18.9-65,17.7,0,0-.2-.5,3.6-2.5,4.6-2.4,13-6.1,24.4-10.6,0-.1,0-.3-.1-.4-11.4,4.5-19.8,8.2-24.5,10.6-3.7,2-4,2.7-3.8,3.1,.2,.4,.7,1.6,18.6-3.2,5.6-1.5,12.2-3.4,19.7-5.7,8.2-2.5,17.4-5.4,27.3-8.6,48.1-15.7,98.9-34.6,113.1-42.2,3.7-2,4-2.7,3.8-3.1Z"/><path class="star_black-1" d="M252.7,122.8c-.2-.4-.7-1.5-16.5,2.5-5.6,1.5-12.5,3.4-20.4,5.7,0,.1,0,.3,.1,.4,7.8-2.3,14.7-4.3,20.3-5.7,14.6-3.8,15.8-3,15.9-2.8,0,0,.1,.4-2,1.7-11.1,6.7-62.5,26.2-114.5,43.4-54.2,17.9-75.5,22.5-76.1,21.1,0,0-.1-.4,2-1.7,4.5-2.7,15.5-7.5,31.4-13.7,0-.2,0-.3,0-.5-15.9,6.2-27,11-31.5,13.8-1.8,1.1-2.5,1.8-2.2,2.3,.2,.4,.8,1.8,22.1-4,5.5-1.5,11.7-3.3,18.6-5.4,10.6-3.2,22.8-7.1,36-11.4,52.1-17.2,103.5-36.7,114.6-43.4,1.8-1.1,2.5-1.8,2.2-2.3Z"/><path class="star_black-1" d="M258.7,120.7c-1.1-2.1-24.1,4.3-43,10,0,.1,0,.3,.1,.4,28.2-8.5,41.8-11.4,42.4-10.2,0,0,0,.3-1,1-8,5.9-60.1,25.9-116.1,44.6-24.1,8.1-46.3,15-62.4,19.5-23.3,6.5-25.2,5.5-25.3,5.2,0,0,0-.3,1-1,3.8-2.8,17.7-8.9,38.4-16.9,0-.2,0-.3,0-.5-20.8,8-34.8,14.1-38.6,17-1,.7-1.3,1.2-1.1,1.6,.2,.5,1,1.9,25.9-5,5.2-1.4,11-3.1,17.2-5,13.3-4,28.8-9,45.2-14.4,56-18.7,108.1-38.8,116.2-44.7,1-.7,1.3-1.2,1.1-1.6Z"/><path class="star_black-1" d="M265.1,118.5c-1.4-2.3-29,5.6-49.5,11.9,0,0,0,0,0,.1,0,.1,0,.2,0,.3,32.5-9.9,48.2-13.3,49-12.1,0,0,0,.2-.3,.5-5,5-57.7,25.6-117.6,45.8-66.9,22.6-98.6,30.2-99.7,28.4,0,0,0-.2,.3-.5,2.7-2.7,19.6-10.1,45.5-20,0-.2,0-.3,0-.5-26.1,10-43,17.4-45.8,20.2-.4,.4-.5,.8-.4,1.1,1.2,1.9,20.1-2.9,45.6-10.7,16.5-5,35.7-11.2,54.6-17.6,60-20.3,112.8-40.9,117.8-45.9,.4-.4,.5-.8,.4-1.1Z"/><path class="star_black-1" d="M271.9,116c-1.8-2.1-27.8,5-56.5,13.9,0,.1,.1,.3,.2,.4,32.4-10,54.5-15.6,55.9-14,0,0,0,0,0,.2-1.9,4.2-55.3,25.3-119.2,47-29.5,10.1-57.3,18.9-78.3,24.9-29.9,8.6-33.4,7.8-33.8,7.4,0,0,0,0,0-.2,1.1-2.5,21.5-11.4,52.5-23.1,0-.2,0-.3,0-.5-37.2,14.1-52,21.3-52.9,23.5-.2,.4,0,.6,0,.7,1.6,1.8,21.5-3.3,48.2-11.4,19.4-5.9,42.3-13.3,64.4-20.8,65-22.1,117.5-42.9,119.4-47.3,.2-.4,0-.6,0-.7Z"/><path class="star_black-1" d="M254.7,117.9c-10.7,2.9-24.1,6.8-39.5,11.6,.1,.1,.2,.3,.3,.4,15.3-4.8,28.7-8.7,39.3-11.5,21.6-5.8,23.7-4.9,23.9-4.4,.1,.4-.9,3-34.4,16.4-22.8,9.1-53.5,20.4-86.3,31.7-32.8,11.3-63.9,21.2-87.6,28.1-34.7,10-37.1,8.6-37.2,8.2-.1-.4,1-2.5,21.8-11.2,10.1-4.3,23-9.3,37.9-14.9,0,0,0,0,0,0,0-.1,0-.3,0-.4-15,5.6-27.9,10.7-38.1,15-22.8,9.6-22.2,11.2-22,11.8,.2,.7,1.7,1.2,10.8-.8,6.5-1.4,15.5-3.8,27-7.1,4.4-1.3,9.1-2.7,14-4.2,21.3-6.4,46.9-14.7,73.5-23.9,32.8-11.3,63.5-22.5,86.3-31.7,11.1-4.4,19.7-8.1,25.7-11,8.4-4,9.2-5.3,9-6-.2-.6-.7-2.2-24.4,4.1Z"/></g><g class="star_black-10"><path class="star_black-1" d="M248.8,124.2c-.2-.5-.5-1.6-15.6,2.3-4.8,1.2-10.6,2.9-17.2,4.8,0,.1,.1,.3,.2,.4,6.6-1.9,12.4-3.6,17.2-4.8,14-3.6,15-2.8,15.1-2.6,0,.2-.2,2-25.9,12.3-17.2,6.9-40.3,15.4-65,23.8-24.7,8.5-48.2,16-66,21.1-26.6,7.7-27.9,6.4-28,6.2,0-.2,.3-1.5,13.7-7.2,4.4-1.9,9.8-4.1,15.9-6.5,0-.1,0-.3-.1-.5-6.1,2.4-11.5,4.6-16,6.6-14.5,6.3-14.1,7.4-13.9,7.8,.2,.5,.7,2.1,28.5-5.9,3.3-1,6.9-2,10.6-3.1,16.1-4.9,35.3-11.1,55.4-18,24.7-8.5,47.8-17,65-23.9,26.9-10.8,26.3-12.4,26.1-12.9Z"/><path class="star_black-1" d="M243,125.6c-2.2-.5-11.9,1.8-27,6.1,0,.1,.1,.3,.2,.4,14.9-4.3,24.6-6.6,26.7-6.1,.2,0,.3,.1,.3,.1,0,.2-.1,1.8-21.9,10.6-14.6,5.9-34.8,13.4-56.7,21.1-48,16.7-90.9,29.4-95.7,28.4-.2,0-.3-.1-.3-.1-.2-.7,5.2-3.9,24.6-11.7,0-.1-.1-.3-.2-.4-12.7,5.1-25,10.4-24.9,12.1,0,.2,.1,.4,.6,.5,2.6,.6,16.6-2.9,36.5-9,16.7-5,37.5-11.8,59.4-19.5,39.4-13.7,79.1-29.1,78.9-32.1,0-.2-.1-.4-.6-.5Z"/><path class="star_black-1" d="M237.4,127.1c-3.1,.2-10.5,1.9-21.2,5,0,.1,.1,.3,.2,.4,10.7-3,18.1-4.8,21.1-4.9,1.2,0,1.3,.1,1.3,.1,0,.2-.7,1.8-18.4,9.1-12.2,5-29.5,11.5-48.6,18.3-44.9,15.9-88.6,29.2-97.3,29.7-1.2,0-1.3-.1-1.3-.1-.1-.8,6.3-4.1,20.3-9.8,0-.1-.2-.3-.2-.4-3.4,1.4-6.5,2.7-9.2,3.9-11.6,5.1-11.4,6.1-11.3,6.5,0,.4,.6,.6,1.8,.5,4.2-.2,16.6-3.4,33.2-8.5,17.9-5.4,40.9-13,64.2-21.2,19.2-6.8,36.5-13.3,48.7-18.3,18.9-7.8,18.7-9.1,18.6-9.5,0-.4-.6-.6-1.8-.5Z"/><path class="star_black-1" d="M231.8,128.6c-3.2,.5-8.5,1.8-15.5,3.7,0,.1,.1,.3,.2,.4,7-1.9,12.2-3.2,15.4-3.7,2.8-.4,3.1-.1,3.2-.1,0,1.2-14.8,8.5-56.2,23.3-41.8,15-86.2,28.9-98.9,30.9-2.8,.4-3.1,.1-3.2,.1,0-.6,3.9-3,16.8-8.3-.1-.1-.2-.3-.3-.4-2.5,1-4.7,2-6.7,2.9-10.6,4.7-10.3,5.6-10.2,6,.1,.4,.6,.7,3.7,.2,5.3-.8,16-3.7,29.7-7.9,19.4-5.9,44.8-14.3,69.3-23.1,9.6-3.4,57.3-20.8,56.5-23.9-.1-.4-.6-.7-3.7-.2Z"/><path class="star_black-1" d="M226.2,130.1c-2.6,.6-5.9,1.4-9.9,2.4,0,.1,.1,.3,.2,.4,3.9-1.1,7.2-1.9,9.8-2.4,5.3-1.1,5.9-.7,5.9-.7,0,1.3-14.4,7.9-46.2,19.6-38.8,14.2-83.8,28.6-100.5,32.2-5.3,1.1-5.9,.7-5.9,.7,0-.5,3.4-2.6,14.1-7.2-.1-.1-.2-.2-.3-.4-1.8,.8-3.4,1.5-4.9,2.1-9.7,4.3-9.5,5.1-9.4,5.5,.1,.5,1,.8,6.5-.3,5.7-1.2,14.7-3.7,25.7-7,21.1-6.4,49.3-15.8,74.8-25.2,14.2-5.2,26.1-9.8,34.4-13.4,12.5-5.4,12.3-6.3,12.1-6.8-.1-.5-1-.8-6.5,.3Z"/><path class="star_black-1" d="M220.6,131.6c-1.3,.3-2.7,.7-4.2,1.1,0,.1,.1,.3,.2,.4,1.5-.4,2.9-.8,4.2-1.1,8.7-2.1,9.6-1.7,9.7-1.6,0,.8-7.9,5.2-37.3,16.2-35.7,13.4-81.5,28.4-102,33.4-8.7,2.1-9.6,1.7-9.7,1.6,0-.5,3-2.4,12.4-6.4,0,0,0,0,0-.1,0,0-.2-.2-.2-.3-1.4,.6-2.6,1.1-3.8,1.7-9.1,4.1-8.9,4.9-8.8,5.3,.1,.4,.4,1.2,10.2-1.2,5.5-1.3,12.8-3.4,21.2-5.9,23.1-7,54.7-17.7,80.9-27.5,11.8-4.4,21.5-8.3,28-11.2,9.9-4.4,9.7-5.2,9.6-5.6-.1-.4-.4-1.2-10.2,1.2Z"/><path class="star_black-1" d="M230.1,130.6c-.1-.4-.4-1.4-13.7,2.1,0,.1,0,.3,.1,.4,11.8-3.1,13-2.6,13.1-2.4,0,.2-.8,2.2-29.4,13.2-32.6,12.5-79.1,28.1-103.6,34.7-13.2,3.5-14.4,3-14.5,2.8,0-.1,.4-1.3,11.6-6.1,0,0,0-.1,0-.2,0,0-.1-.1-.2-.2-1.7,.7-3.2,1.4-4.5,2-7.7,3.5-7.5,4.3-7.4,4.6,.1,.4,.5,1.4,15.1-2.5,4.6-1.2,10.1-2.8,16.1-4.6,25.6-7.7,61.1-19.9,87.6-30,9.5-3.7,17.2-6.8,22.3-9.2,7.7-3.5,7.5-4.3,7.4-4.6Z"/><path class="star_black-1" d="M230.5,130.5c-.1-.4-.5-1.4-14.1,2.2,0,.1,.1,.3,.2,.4,12.1-3.2,13.4-2.7,13.5-2.5,0,.3-1.1,2-22.7,10.6-29.6,11.7-76.7,27.8-105.2,35.9-18.7,5.3-20.3,4.6-20.5,4.5,0-.2,.7-1.4,12-6.2,0,0,0-.1,0-.2,0,0-.2-.2-.2-.2-12.7,5.4-12.4,6.4-12.2,6.8,.2,.5,.6,1.7,21-4.1,3.2-.9,6.7-1.9,10.3-3,28.6-8.6,68.7-22.5,94.9-32.9,23.6-9.3,23.1-10.7,23-11.2Z"/><path class="star_black-1" d="M232,130c-.1-.3-.4-1-7.6,.6-2.2,.5-4.9,1.2-8,2,0,.1,.1,.3,.2,.4,13.8-3.7,14.9-3,15-2.9,0,.2-.8,1.7-17,8.3-26.5,10.9-74.4,27.5-106.7,37.1-25.7,7.6-27.4,6.6-27.5,6.5,0-.2,.7-1.5,13.5-6.9,0,0,0,0,0,0-.1-.1-.2-.2-.3-.4-14.1,6-13.8,7-13.6,7.4,.1,.3,.4,1,7.6-.6,4.8-1.1,11.7-3,20.5-5.6,1.3-.4,2.6-.8,3.9-1.2,32.2-9.7,77.4-25.5,102.9-36,17.8-7.3,17.4-8.5,17.3-8.9Z"/><path class="star_black-1" d="M234.5,129.1c-.1-.4-.4-1.2-9.8,1.1-2.4,.6-5.2,1.3-8.4,2.2,0,.1,.1,.3,.2,.4,16.3-4.5,17.5-3.7,17.6-3.6,0,.2-.5,1.4-12.4,6.4-23.4,10-72,27.3-108.3,38.4-33.4,10.2-35.5,9-35.6,8.8,0-.2,.5-1.4,12.4-6.4,1.1-.5,2.3-1,3.5-1.5-.1-.1-.2-.3-.3-.4-1.2,.5-2.3,1-3.4,1.4-13.1,5.6-12.8,6.6-12.6,7,.1,.4,.4,1.2,9.8-1.1,5.6-1.3,13.6-3.6,23.2-6.5,1-.3,2.1-.6,3.2-1,36.3-11.1,84.9-28.4,108.3-38.4,13.1-5.6,12.8-6.6,12.6-7Z"/><path class="star_black-1" d="M237.9,127.9c-.1-.4-.5-1.3-11.9,1.6-2.8,.7-6.1,1.6-9.8,2.6,0,.1,.1,.3,.2,.4,15.6-4.4,20.8-5,21.1-4.5,0,.1-.3,1.1-8.7,4.9-20.3,9.2-69.6,27-109.9,39.6-34.2,10.7-44.1,12.3-44.6,11.5,0-.1,.3-1.1,8.7-4.9,2.9-1.3,6.4-2.8,10.4-4.4,0-.1-.2-.3-.2-.4-4,1.6-7.5,3.1-10.4,4.4-9.4,4.3-9.1,5.1-8.9,5.5,.1,.4,.5,1.3,12.4-1.7,5.7-1.4,13.2-3.5,22-6.2s7-2.1,10.8-3.3c40.3-12.6,89.6-30.4,109.9-39.7,9.4-4.2,9.1-5.1,8.9-5.5Z"/><path class="star_black-1" d="M242.2,126.5c-.2-.4-.5-1.4-13.2,1.8-3.6,.9-8,2.1-12.9,3.5,0,.1,.1,.3,.2,.4,19.1-5.5,25.2-6.2,25.5-5.6,0,0,0,.8-5.8,3.6-17.3,8.4-67.3,26.7-111.4,40.9-42,13.5-54,15.4-54.4,14.5,0,0,0-.8,5.8-3.6,4-1.9,9.9-4.5,17.4-7.5,0-.1-.1-.3-.2-.4-7.4,3-13.4,5.5-17.4,7.5-6.4,3.1-6.2,3.8-6,4.2,.2,.4,.6,1.5,15.4-2.4,5.7-1.5,12.7-3.5,20.8-5.9,5.8-1.7,12.1-3.7,18.9-5.9,44.2-14.2,94.2-32.5,111.5-40.9,6.4-3.1,6.2-3.8,6-4.2Z"/><path class="star_black-1" d="M247.1,124.7c-.7-1.7-16.2,2.3-31.2,6.7,0,.1,.1,.3,.2,.4,23.1-6.8,30.3-7.7,30.6-7,0,0,.2,.5-3.6,2.5-14.2,7.5-64.9,26.4-113,42.1-46.7,15.2-64.4,18.9-65,17.7,0,0-.2-.5,3.6-2.5,4.6-2.4,13-6.1,24.4-10.6,0-.1,0-.3-.1-.4-11.4,4.5-19.8,8.2-24.5,10.6-3.7,2-4,2.7-3.8,3.1,.2,.4,.7,1.6,18.6-3.2,5.6-1.5,12.2-3.4,19.7-5.7,8.2-2.5,17.4-5.4,27.3-8.6,48.1-15.7,98.9-34.6,113.1-42.2,3.7-2,4-2.7,3.8-3.1Z"/><path class="star_black-1" d="M252.7,122.8c-.2-.4-.7-1.5-16.5,2.5-5.6,1.5-12.5,3.4-20.4,5.7,0,.1,0,.3,.1,.4,7.8-2.3,14.7-4.3,20.3-5.7,14.6-3.8,15.8-3,15.9-2.8,0,0,.1,.4-2,1.7-11.1,6.7-62.5,26.2-114.5,43.4-54.2,17.9-75.5,22.5-76.1,21.1,0,0-.1-.4,2-1.7,4.5-2.7,15.5-7.5,31.4-13.7,0-.2,0-.3,0-.5-15.9,6.2-27,11-31.5,13.8-1.8,1.1-2.5,1.8-2.2,2.3,.2,.4,.8,1.8,22.1-4,5.5-1.5,11.7-3.3,18.6-5.4,10.6-3.2,22.8-7.1,36-11.4,52.1-17.2,103.5-36.7,114.6-43.4,1.8-1.1,2.5-1.8,2.2-2.3Z"/><path class="star_black-1" d="M258.7,120.7c-1.1-2.1-24.1,4.3-43,10,0,.1,0,.3,.1,.4,28.2-8.5,41.8-11.4,42.4-10.2,0,0,0,.3-1,1-8,5.9-60.1,25.9-116.1,44.6-24.1,8.1-46.3,15-62.4,19.5-23.3,6.5-25.2,5.5-25.3,5.2,0,0,0-.3,1-1,3.8-2.8,17.7-8.9,38.4-16.9,0-.2,0-.3,0-.5-20.8,8-34.8,14.1-38.6,17-1,.7-1.3,1.2-1.1,1.6,.2,.5,1,1.9,25.9-5,5.2-1.4,11-3.1,17.2-5,13.3-4,28.8-9,45.2-14.4,56-18.7,108.1-38.8,116.2-44.7,1-.7,1.3-1.2,1.1-1.6Z"/><path class="star_black-1" d="M265.1,118.5c-1.4-2.3-29,5.6-49.5,11.9,0,0,0,0,0,.1,0,.1,0,.2,0,.3,32.5-9.9,48.2-13.3,49-12.1,0,0,0,.2-.3,.5-5,5-57.7,25.6-117.6,45.8-66.9,22.6-98.6,30.2-99.7,28.4,0,0,0-.2,.3-.5,2.7-2.7,19.6-10.1,45.5-20,0-.2,0-.3,0-.5-26.1,10-43,17.4-45.8,20.2-.4,.4-.5,.8-.4,1.1,1.2,1.9,20.1-2.9,45.6-10.7,16.5-5,35.7-11.2,54.6-17.6,60-20.3,112.8-40.9,117.8-45.9,.4-.4,.5-.8,.4-1.1Z"/><path class="star_black-1" d="M271.9,116c-1.8-2.1-27.8,5-56.5,13.9,0,.1,.1,.3,.2,.4,32.4-10,54.5-15.6,55.9-14,0,0,0,0,0,.2-1.9,4.2-55.3,25.3-119.2,47-29.5,10.1-57.3,18.9-78.3,24.9-29.9,8.6-33.4,7.8-33.8,7.4,0,0,0,0,0-.2,1.1-2.5,21.5-11.4,52.5-23.1,0-.2,0-.3,0-.5-37.2,14.1-52,21.3-52.9,23.5-.2,.4,0,.6,0,.7,1.6,1.8,21.5-3.3,48.2-11.4,19.4-5.9,42.3-13.3,64.4-20.8,65-22.1,117.5-42.9,119.4-47.3,.2-.4,0-.6,0-.7Z"/><path class="star_black-1" d="M254.7,117.9c-10.7,2.9-24.1,6.8-39.5,11.6,.1,.1,.2,.3,.3,.4,15.3-4.8,28.7-8.7,39.3-11.5,21.6-5.8,23.7-4.9,23.9-4.4,.1,.4-.9,3-34.4,16.4-22.8,9.1-53.5,20.4-86.3,31.7-32.8,11.3-63.9,21.2-87.6,28.1-34.7,10-37.1,8.6-37.2,8.2-.1-.4,1-2.5,21.8-11.2,10.1-4.3,23-9.3,37.9-14.9,0,0,0,0,0,0,0-.1,0-.3,0-.4-15,5.6-27.9,10.7-38.1,15-22.8,9.6-22.2,11.2-22,11.8,.2,.7,1.7,1.2,10.8-.8,6.5-1.4,15.5-3.8,27-7.1,4.4-1.3,9.1-2.7,14-4.2,21.3-6.4,46.9-14.7,73.5-23.9,32.8-11.3,63.5-22.5,86.3-31.7,11.1-4.4,19.7-8.1,25.7-11,8.4-4,9.2-5.3,9-6-.2-.6-.7-2.2-24.4,4.1Z"/></g><g class="star_black-8"><path class="star_black-1" d="M194,144c8.3,27.2-13.4,54.4-41.9,51.2-35.2-4.1-49-47.9-21.6-70.9,22.1-18.2,55.4-7.6,63.5,19.7h0Zm-.1,0c-6-20.5-28.9-32.1-49.1-25.8-33.1,10.2-38,55.4-7.3,72,30.5,16,66.2-13,56.4-46.1h0Z"/></g></svg>